# Blender v2.71 (sub 0) OBJ File: ''
# www.blender.org
v 0.500000 0.500000 -0.500000
v 0.500000 -0.500000 -0.500000
v -0.500000 -0.500000 -0.500000
v -0.500000 0.500000 -0.500000
v 0.500000 0.500000 0.500000
v 0.500000 -0.500000 0.500000
v -0.500000 -0.500000 0.500000
v -0.500000 0.500000 0.500000
vt 1.0 0.0
vt 1.0 1.0
vt 0.0 1.0
vt 0.0 0.0
vt 0.0 1.0
vt 0.0 0.0
vt 1.0 0.0
vt 1.0 1.0
vn 0.000000 0.000000 -1.000000
vn 0.000000 0.000000 1.000000
vn 1.000000 -0.000000 -0.000000
vn -0.000000 -1.000000 -0.000000
vn -1.000000 0.000000 -0.000000
vn 0.000000 1.000000 0.000000
s off
f 2/2/1 3/3/1 4/4/1
f 8/8/2 7/7/2 6/6/2
f 1/2/3 5/3/3 6/4/3
f 2/2/4 6/6/4 7/7/4
f 7/1/5 8/2/5 4/3/5
f 1/2/6 4/3/6 8/4/6
f 1/1/1 2/2/1 4/4/1
f 5/5/2 8/8/2 6/6/2
f 2/1/3 1/2/3 6/4/3
f 3/3/4 2/2/4 7/7/4
f 3/4/5 7/1/5 4/3/5
f 5/1/6 1/2/6 8/4/6
